<svg xmlns="http://www.w3.org/2000/svg" viewBox="0 0 32 32" width="32" height="32">
  <defs>
    <linearGradient id="g" x1="0" y1="0" x2="1" y2="1">
      <stop offset="0" stop-color="#7c3aed"/>
      <stop offset="1" stop-color="#6366f1"/>
    </linearGradient>
  </defs>
  <rect width="32" height="32" rx="8" fill="url(#g)"/>
  <g transform="translate(4 4)" fill="none" stroke="#ffffff" stroke-width="1.7" stroke-linecap="round" stroke-linejoin="round">
    <circle cx="12" cy="5.2" r="1.6" fill="#ffffff" stroke="none"/>
    <path d="M12 7v12"/>
    <path d="M10.6 8.4C8.3 7.1 5.7 7 3.9 8.3"/>
    <path d="M10.7 10.6C8.5 9.5 6.2 9.6 4.6 10.9"/>
    <path d="M10.9 12.8C8.9 11.9 7 12.1 5.6 13.3"/>
    <path d="M13.4 8.4C15.7 7.1 18.3 7 20.1 8.3"/>
    <path d="M13.3 10.6C15.5 9.5 17.8 9.6 19.4 10.9"/>
    <path d="M13.1 12.8C15.1 11.9 17 12.1 18.4 13.3"/>
    <path d="M10.5 19h3"/>
  </g>
</svg>
