<svg xmlns="http://www.w3.org/2000/svg" viewBox="0 0 32 32" width="32" height="32">
  <defs>
    <linearGradient id="g" x1="0" y1="0" x2="1" y2="1">
      <stop offset="0" stop-color="#c79a18"/>
      <stop offset="1" stop-color="#7a5e06"/>
    </linearGradient>
  </defs>
  <rect width="32" height="32" rx="8" fill="url(#g)"/>
  <g transform="translate(4 4)" fill="none" stroke="#ffffff" stroke-width="1.3" stroke-linecap="round" stroke-linejoin="round">
    <path d="M12 4.6V20"/>
    <circle cx="12" cy="3.6" r="1.05" fill="#ffffff" stroke="none"/>
    <path d="M11.4 5C9 4 6.4 4 4.6 4.8"/>
    <path d="M11.5 6.1C9.3 5.4 7 5.5 5.3 6.2"/>
    <path d="M12.6 5C15 4 17.6 4 19.4 4.8"/>
    <path d="M12.5 6.1C14.7 5.4 17 5.5 18.7 6.2"/>
    <path d="M11 6.8C8.8 7.8 8.8 9 12 9.8C15.2 10.6 15.2 12 12 12.8C8.8 13.6 8.8 15 12 15.8C15.2 16.6 14.8 18 12 18.8"/>
    <path d="M13 6.8C15.2 7.8 15.2 9 12 9.8C8.8 10.6 8.8 12 12 12.8C15.2 13.6 15.2 15 12 15.8C8.8 16.6 9.2 18 12 18.8"/>
    <circle cx="11" cy="6.4" r="0.85" fill="#ffffff" stroke="none"/>
    <circle cx="13" cy="6.4" r="0.85" fill="#ffffff" stroke="none"/>
  </g>
</svg>
