<svg xmlns="http://www.w3.org/2000/svg" viewBox="0 0 32 32" width="32" height="32">
  <defs>
    <linearGradient id="g" x1="0" y1="0" x2="1" y2="1">
      <stop offset="0" stop-color="#c79a18"/>
      <stop offset="1" stop-color="#7a5e06"/>
    </linearGradient>
  </defs>
  <rect width="32" height="32" rx="8" fill="url(#g)"/>
  <g transform="translate(4 4)" fill="none" stroke="#ffffff" stroke-width="1.25" stroke-linecap="round" stroke-linejoin="round">
    <path d="M12 4.2V20"/>
    <circle cx="12" cy="3.4" r="1" fill="#ffffff" stroke="none"/>
    <path d="M11.2 5C8 3.4 5.2 3.6 3.4 5"/>
    <path d="M11.3 5.6C8.6 4.3 6.2 4.6 4.6 5.8"/>
    <path d="M11.4 6.1C9.2 5.2 7.3 5.6 6.1 6.6"/>
    <path d="M11.5 6.6C9.6 6 8.2 6.4 7.2 7.2"/>
    <path d="M12.8 5C16 3.4 18.8 3.6 20.6 5"/>
    <path d="M12.7 5.6C15.4 4.3 17.8 4.6 19.4 5.8"/>
    <path d="M12.6 6.1C14.8 5.2 16.7 5.6 17.9 6.6"/>
    <path d="M12.5 6.6C14.4 6 15.8 6.4 16.8 7.2"/>
    <path d="M11 7C8.8 8 8.8 9.2 12 10C15.2 10.8 15.2 12.2 12 13C8.8 13.8 8.8 15.2 12 16C15.2 16.8 14.8 18.2 12 19"/>
    <path d="M13 7C15.2 8 15.2 9.2 12 10C8.8 10.8 8.8 12.2 12 13C15.2 13.8 15.2 15.2 12 16C8.8 16.8 9.2 18.2 12 19"/>
    <circle cx="11" cy="6.7" r="0.8" fill="#ffffff" stroke="none"/>
    <circle cx="13" cy="6.7" r="0.8" fill="#ffffff" stroke="none"/>
  </g>
</svg>
